<svg width="156" height="153" viewBox="0 0 156 153" fill="none" xmlns="http://www.w3.org/2000/svg">
<g clip-path="url(#clip0_40_119)">
<path d="M15.7631 26.8953C18.3534 23.7269 22.8637 27.8701 20.276 31.0439C16.9642 35.0596 15.5277 37.4688 13.0116 42.8836C10.7756 47.6626 7.66345 55.9503 11.9269 60.6873C13.1664 62.1244 14.9252 63.0124 16.803 63.0124C20.9501 63.0544 20.7505 69.3559 16.8785 69.3559C13.3276 69.3139 10.0133 67.7493 7.57775 65.0406C1.3137 57.9771 4.1061 47.7467 7.66345 40.0881C10.452 34.1296 12.1674 31.2513 15.7618 26.8939L15.7631 26.8953ZM32.9627 118.195C34.6409 118.195 35.9559 119.634 35.9559 121.369C35.9559 123.104 34.6422 124.542 32.9627 124.542H19.5123C16.2389 124.542 13.2508 122.934 11.089 120.438C6.37917 115.195 5.78564 106.864 10.8115 101.619C12.9681 99.3382 15.9243 97.9405 19.1145 97.855C23.8666 97.855 23.3025 104.157 19.5136 104.157C17.8392 104.157 16.2402 104.791 15.0429 106.102C12.3298 108.937 12.9681 113.377 15.442 116.126C16.5191 117.393 18.0003 118.195 19.5136 118.195H32.964H32.9627ZM45.3757 135.069C47.4146 131.473 52.5146 134.735 50.5255 138.285C49.4024 140.275 47.8508 141.915 46.092 143.061C41.2631 146.319 35.4008 145.641 31.4034 141.116C29.5742 139.089 28.336 136.335 27.9752 133.334C27.69 131.095 27.9752 128.346 30.8521 128.346C32.5252 128.346 33.8427 129.78 33.8427 131.518C33.8427 136.757 38.6729 140.568 42.903 137.732C43.8995 137.052 44.777 136.168 45.3744 135.068L45.3757 135.069ZM64.4556 105.129C63.6549 103.651 64.1384 101.703 65.5288 100.816C66.9653 99.9293 68.8047 100.436 69.6413 101.958C71.1162 104.624 71.9169 107.753 71.9169 110.88V142.469C71.9169 148.049 67.8019 152.999 62.4166 152.999C57.0314 152.999 52.9176 148.049 52.9176 142.469V123.018C52.9176 121.831 52.4763 120.733 51.8022 119.971C50.4424 118.446 48.3267 118.446 46.9746 119.971C46.2928 120.733 45.8899 121.831 45.8899 123.018V128.773C45.8899 132.955 39.9124 132.955 39.9124 128.773C39.9124 123.694 39.0694 119.678 42.6255 115.657C46.3389 111.472 52.4392 111.472 56.1526 115.657C57.8692 117.562 58.904 120.142 58.904 123.016V142.467C58.904 144.584 60.3034 146.658 62.4179 146.658C64.5324 146.658 65.9318 144.584 65.9318 142.467V110.878C65.9318 108.85 65.4533 106.905 64.4569 105.127L64.4556 105.129ZM2.4304 69.566C4.54997 66.056 9.57963 69.4806 7.46518 72.9934C6.34208 74.8087 5.98647 75.7428 5.98647 77.8957C5.98647 80.8594 7.06352 83.5207 8.78016 85.4676C10.4162 87.3263 12.6905 88.5112 15.2041 88.5112H31.0132V91.6837C31.0132 97.1392 34.8418 102.253 40.2258 102.253H54.876C58.8273 102.253 58.8273 108.599 54.876 108.599H40.2258C32.6864 108.599 26.618 102.504 25.2634 94.8507H15.2041C11.0161 94.8507 7.17993 92.9079 4.42845 89.7802C1.67698 86.7352 0 82.5066 0 77.8957C0 74.5972 0.71633 72.3575 2.4304 69.566ZM30.6896 70.1178C34.1178 72.104 31.2908 77.6436 27.8153 75.6547C25.0255 74.0468 23.7885 71.681 23.7885 68.2957V25.3335C23.7885 17.2559 29.6919 10.1112 37.4768 10.1112C41.4256 10.1112 41.4256 16.452 37.4768 16.452C33.0036 16.452 29.7686 20.766 29.7686 25.3321V68.2943C29.7686 69.3545 29.7686 69.6067 30.6909 70.1165L30.6896 70.1178ZM56.0758 28.4205C56.0758 24.2326 62.0572 24.2326 62.0572 28.4205V54.9769C62.0572 66.0574 46.2148 67.2409 45.817 55.3158C45.3373 42.0796 45.7747 27.8294 45.7747 14.5078C45.7747 6.81127 51.4005 0 58.8644 0C66.3283 0 71.9169 6.81127 71.9169 14.5078V78.2794C71.9169 83.7756 69.7245 88.7241 66.4524 92.447C59.1023 100.732 47.6142 101.62 40.103 93.0367C36.6006 89.1037 34.6422 83.6889 34.6422 78.2794V45.2521C34.6422 41.0642 40.6236 41.0642 40.6236 45.2521V78.2794C40.6236 82.1691 41.9424 85.8879 44.4521 88.7241C49.6519 94.6012 57.1132 93.7146 62.0981 88.0882C64.4134 85.511 65.9305 82.043 65.9305 78.2794V14.5078C65.9305 10.2779 62.9769 6.3476 58.8644 6.3476C54.7519 6.3476 51.7638 10.2779 51.7638 14.5078V54.9769C51.7638 58.1059 56.0745 58.4028 56.0745 54.9769V28.4205H56.0758Z" fill="#29ABE2"/>
<path fill-rule="evenodd" clip-rule="evenodd" d="M101.925 152.592V130.655C100.762 129.973 99.9727 128.66 99.9727 127.149C99.9727 124.94 101.661 123.148 103.745 123.148C105.829 123.148 107.52 124.94 107.52 127.149C107.52 128.66 106.734 129.973 105.568 130.655V152.592H101.925Z" fill="#8CD52E"/>
<path fill-rule="evenodd" clip-rule="evenodd" d="M90.7808 152.592V131.677L79.0701 119.265L78.5379 117.905V7.91349C77.3752 7.23426 76.5859 5.91919 76.5859 4.40889C76.5859 2.20038 78.2744 0.408081 80.3607 0.408081C82.4471 0.408081 84.1355 2.20038 84.1355 4.40889C84.1355 5.91919 83.3463 7.23291 82.181 7.91349V117.116L93.8917 129.528L94.4238 130.888V152.593H90.7808V152.592Z" fill="#F8CD02"/>
<path fill-rule="evenodd" clip-rule="evenodd" d="M121.721 91.2689V62.4457L106.393 46.1957L105.861 44.8373V17.0811C104.785 16.3748 104.07 15.1166 104.07 13.6782C104.07 11.4683 105.759 9.67737 107.845 9.67737C109.931 9.67737 111.62 11.4683 111.62 13.6782C111.62 15.2576 110.755 16.6215 109.502 17.2736V44.0469L124.83 60.2955L125.364 61.654V91.2702H121.721V91.2689Z" fill="#D02396"/>
<path fill-rule="evenodd" clip-rule="evenodd" d="M125.365 20.6751V38.5547L152.438 67.249L152.97 67.813V98.8189H149.33V69.4155L122.256 40.7198L121.722 40.1558V20.6751C120.559 19.9945 119.77 18.6794 119.77 17.1705C119.77 14.9606 121.458 13.1683 123.544 13.1683C125.631 13.1683 127.319 14.962 127.319 17.1705C127.319 18.6781 126.53 19.9932 125.365 20.6751Z" fill="#8CD52E"/>
<path fill-rule="evenodd" clip-rule="evenodd" d="M137.835 75.4242V90.3212H134.192V75.4242C133.027 74.741 132.237 73.4272 132.237 71.9183C132.237 69.7084 133.928 67.9175 136.012 67.9175C138.096 67.9175 139.787 69.7084 139.787 71.9183C139.787 73.4259 138.998 74.741 137.835 75.4242Z" fill="#F8CD02"/>
<path fill-rule="evenodd" clip-rule="evenodd" d="M93.7064 1.37061C95.7928 1.37061 97.4812 3.1629 97.4812 5.37141C97.4812 6.879 96.692 8.19543 95.5292 8.87737V101.796L108.932 116.002H148.924V119.863H107.425L106.891 119.299L92.4183 103.961L91.8862 103.395V8.87737C90.7209 8.19679 89.9316 6.88036 89.9316 5.37141C89.9316 3.16155 91.6227 1.37061 93.7064 1.37061Z" fill="#1BA4D8"/>
<path fill-rule="evenodd" clip-rule="evenodd" d="M107.289 58.3065C109.373 58.3065 111.064 60.0988 111.064 62.306C111.064 63.8163 110.275 65.13 109.11 65.8119V88.8149L121.624 102.077H139.573V105.938H120.113L119.578 105.373L106.001 90.98L105.467 90.4147V65.8106C104.304 65.13 103.515 63.8149 103.515 62.3046C103.515 60.0975 105.203 58.3052 107.289 58.3052V58.3065Z" fill="#ED2025"/>
<path fill-rule="evenodd" clip-rule="evenodd" d="M137.346 26.856C139.432 26.856 141.121 28.6483 141.121 30.8554C141.121 31.2418 141.068 31.6173 140.972 31.9698L156 47.8985L153.422 50.6276L138.399 34.699C138.062 34.8006 137.712 34.8549 137.347 34.8549C135.263 34.8549 133.572 33.0626 133.572 30.8541C133.572 28.6456 135.263 26.8546 137.347 26.8546L137.346 26.856Z" fill="#1BA4D8"/>
</g>
<defs>
<clipPath id="clip0_40_119">
<rect width="156" height="153" fill="white"/>
</clipPath>
</defs>
</svg>
